HIERARCHY
ROOT Hips
{
 OFFSET 0.000000 0.000000 0.000000
 CHANNELS 6 Xposition Yposition Zposition Yrotation Xrotation Zrotation
 JOINT Chest
 {
  OFFSET 0.000000 9.585900 0.002600
  CHANNELS 3 Yrotation Xrotation Zrotation
  JOINT Chest2
  {
   OFFSET 0.000000 9.601200 -0.005300
   CHANNELS 3 Yrotation Xrotation Zrotation
   JOINT Chest3
   {
    OFFSET 0.000000 9.561800 0.000000
    CHANNELS 3 Yrotation Xrotation Zrotation
    JOINT Chest4
    {
     OFFSET 0.000000 9.552100 0.000000
     CHANNELS 3 Yrotation Xrotation Zrotation
     JOINT Neck
     {
      OFFSET 0.000000 14.453000 0.000000
      CHANNELS 3 Yrotation Xrotation Zrotation
      JOINT Head
      {
       OFFSET 0.000000 8.936500 -0.011300
       CHANNELS 3 Yrotation Xrotation Zrotation
       End Site
       {
        OFFSET 0.000000 17.073600 -0.006000
       }
      }
     }
     JOINT RightCollar
     {
      OFFSET -2.921100 9.558500 0.000000
      CHANNELS 3 Yrotation Xrotation Zrotation
      JOINT RightShoulder
      {
       OFFSET -13.519700 0.000000 0.000000
       CHANNELS 3 Yrotation Xrotation Zrotation
       JOINT RightElbow
       {
        OFFSET 0.000000 -29.696600 0.000000
        CHANNELS 3 Yrotation Xrotation Zrotation
        JOINT RightWrist
        {
         OFFSET 0.000000 -24.004700 0.000000
         CHANNELS 3 Yrotation Xrotation Zrotation
         End Site
         {
          OFFSET 0.000000 -17.728500 0.000000
         }
        }
       }
      }
     }
     JOINT LeftCollar
     {
      OFFSET 2.921100 9.558500 0.000000
      CHANNELS 3 Yrotation Xrotation Zrotation
      JOINT LeftShoulder
      {
       OFFSET 13.519700 0.000000 0.000000
       CHANNELS 3 Yrotation Xrotation Zrotation
       JOINT LeftElbow
       {
        OFFSET 0.000000 -29.696600 0.000000
        CHANNELS 3 Yrotation Xrotation Zrotation
        JOINT LeftWrist
        {
         OFFSET 0.000000 -24.004700 0.000000
         CHANNELS 3 Yrotation Xrotation Zrotation
         End Site
         {
          OFFSET 0.000000 -17.728500 0.000000
         }
        }
       }
      }
     }
    }
   }
  }
 }
 JOINT RightHip
 {
  OFFSET -7.771700 -0.012900 -0.001300
  CHANNELS 3 Yrotation Xrotation Zrotation
  JOINT RightKnee
  {
   OFFSET 0.000000 -40.869800 0.001200
   CHANNELS 3 Yrotation Xrotation Zrotation
   JOINT RightAnkle
   {
    OFFSET 0.000000 -39.717900 0.002100
    CHANNELS 3 Yrotation Xrotation Zrotation
    JOINT RightToe
    {
     OFFSET 0.000000 -4.965400 11.033500
     CHANNELS 3 Yrotation Xrotation Zrotation
     End Site
     {
      OFFSET 0.000000 -1.423100 5.872300
     }
    }
   }
  }
 }
 JOINT LeftHip
 {
  OFFSET 7.771700 -0.012900 -0.001300
  CHANNELS 3 Yrotation Xrotation Zrotation
  JOINT LeftKnee
  {
   OFFSET 0.000000 -40.869800 0.001200
   CHANNELS 3 Yrotation Xrotation Zrotation
   JOINT LeftAnkle
   {
    OFFSET 0.000000 -39.717900 0.002100
    CHANNELS 3 Yrotation Xrotation Zrotation
    JOINT LeftToe
    {
     OFFSET 0.000000 -4.965400 11.033500
     CHANNELS 3 Yrotation Xrotation Zrotation
     End Site
     {
      OFFSET 0.000000 -1.423100 5.872300
     }
    }
   }
  }
 }
}
MOTION
Frames: 7
Frame Time: 0.008333
0.000000 85.388000 0.000000 0.000000 -5.767877 0.000000 0.000000 11.653817 0.000000 0.000000 -5.885947 0.000000 0.000000 -0.000000 0.000000 0.000000 -0.000000 0.000000 0.000000 12.528835 0.000000 0.000000 0.711642 0.000000 0.000000 -0.000000 0.000000 0.000000 0.000000 -90.000000 0.000000 -2.309062 0.000000 0.000000 2.309062 0.000000 0.000000 -0.000000 0.000000 0.000000 -0.000000 90.000000 0.000000 -2.309062 0.000000 0.000000 2.309062 0.000000 0.000000 8.520406 0.000000 0.000000 1.905762 0.000000 -0.000000 -4.658285 0.000000 0.000000 -0.000000 0.000000 0.000000 8.520406 0.000000 0.000000 1.905762 0.000000 -0.000000 -4.658285 0.000000 0.000000 -0.000000 0.000000
-99.320326 57.475145 94.641864 177.214807 -39.992332 -2.908719 3.219944 20.323584 0.772612 0.361373 2.579776 0.056957 0.624456 4.218969 0.064486 2.632141 17.389120 0.637539 -0.268799 15.628650 0.069626 -0.519544 -6.783915 0.182678 -0.486652 -0.034908 0.067261 -4.132847 -13.628128 -6.531235 109.030054 -53.534191 -105.362964 17.442212 -19.134841 -52.432877 -5.088301 -0.770890 -0.933558 21.118514 -10.950930 -5.339519 169.666940 -66.058182 -177.906993 0.786463 -19.337731 31.888422 10.571385 -35.117999 -6.089023 -9.403432 66.502287 -5.780060 8.868359 23.314751 6.512803 -0.287814 -15.176766 2.293132 -7.871828 -33.349004 3.618028 26.920529 65.849187 24.259098 -15.634208 5.921839 -4.694641 -0.035062 0.133755 0.000057
-99.313516 57.476718 94.639168 177.193483 -39.995100 -2.906474 3.228164 20.326683 0.794488 0.357973 2.581190 0.055899 0.616958 4.224221 0.077783 2.631577 17.395093 0.645249 -0.151896 15.610781 0.025974 -0.288535 -6.808032 0.091975 -0.426841 -0.071115 0.087824 -4.082286 -13.652482 -6.753628 109.610262 -52.824238 -105.831630 17.611226 -19.196051 -52.394058 -5.094470 -0.848639 -0.957750 20.948263 -10.982907 -5.191827 175.205007 -65.186439 177.039046 0.312823 -19.333333 31.904553 10.671044 -35.110265 -6.066619 -9.499903 66.498674 -5.869295 8.839962 23.286482 6.560303 -0.270294 -15.157924 2.289182 -7.846911 -33.343583 3.636457 26.944045 65.848915 24.283995 -15.662238 5.919804 -4.692469 -0.031337 0.129755 -0.000898
-99.308976 57.478486 94.635871 177.185987 -39.997216 -2.897347 3.206831 20.331691 0.798466 0.365504 2.582136 0.050701 0.612691 4.227396 0.082810 2.628939 17.400142 0.652026 -0.029808 15.598312 -0.004341 -0.054087 -6.828335 0.002798 -0.394081 -0.090856 0.086813 -4.001574 -13.693458 -6.941940 110.199500 -52.203776 -106.293722 17.768968 -19.252059 -52.357358 -5.091552 -0.885983 -0.984939 20.738791 -11.050206 -5.029810 -179.960961 -64.136770 172.663846 -0.192068 -19.340082 31.901036 10.704491 -35.104587 -6.060533 -9.480515 66.506209 -5.865530 8.829614 23.251068 6.601384 -0.273518 -15.137323 2.274970 -7.820161 -33.338721 3.632322 26.959724 65.845699 24.304556 -15.688481 5.915406 -4.692301 -0.020141 0.129804 -0.001702
-99.304969 57.479593 94.633347 177.211419 -39.989941 -2.906886 3.175729 20.327769 0.793419 0.356920 2.583056 0.057241 0.611653 4.230013 0.084576 2.624543 17.405138 0.658829 0.093222 15.589534 -0.027469 0.183687 -6.844513 -0.085066 -0.367425 -0.108028 0.087251 -3.909892 -13.741475 -7.127240 110.789336 -51.654746 -106.740013 17.905745 -19.305347 -52.321421 -5.080882 -0.905999 -1.011769 20.501143 -11.130463 -4.856148 -175.726770 -62.968594 168.860903 -0.692779 -19.359905 31.883799 10.717530 -35.110640 -6.050911 -9.367500 66.527799 -5.793935 8.779943 23.192624 6.666478 -0.285932 -15.102841 2.254804 -7.826803 -33.342913 3.626175 26.986277 65.845433 24.324776 -15.702066 5.941772 -4.679322 -0.024443 0.097905 -0.004539
-99.300245 57.481875 94.629698 177.203499 -39.993294 -2.901725 3.150975 20.331646 0.802084 0.365846 2.583666 0.049815 0.610008 4.233013 0.086280 2.617463 17.410987 0.665164 0.218085 15.582935 -0.049027 0.424348 -6.856428 -0.170693 -0.341052 -0.120455 0.085903 -3.809408 -13.800136 -7.311697 111.372645 -51.165268 -107.166389 18.028580 -19.360178 -52.287938 -5.083564 -0.950986 -1.038579 20.273612 -11.186423 -4.661556 -171.953795 -61.708813 165.502307 -1.151082 -19.395584 31.847965 10.783060 -35.100909 -6.049860 -9.388237 66.534099 -5.809389 8.764237 23.153169 6.709140 -0.291200 -15.079118 2.244080 -7.809938 -33.336935 3.625133 26.970988 65.845522 24.315290 -15.706150 5.949419 -4.669683 -0.022810 0.089776 -0.013347
-99.296577 57.484727 94.625461 177.191271 -40.002737 -2.891750 3.155330 20.340880 0.801452 0.347176 2.582230 0.058560 0.614615 4.235763 0.084281 2.602289 17.417232 0.675281 0.343949 15.578692 -0.068837 0.666328 -6.863653 -0.253541 -0.311904 -0.127714 0.069099 -3.706158 -13.865946 -7.483351 111.955874 -50.727404 -107.576870 18.146425 -19.416219 -52.267230 -5.128195 -1.039519 -1.071846 20.084839 -11.207233 -4.435177 -168.572563 -60.376234 162.531000 -1.570081 -19.439487 31.788591 10.854620 -35.083068 -6.053537 -9.403211 66.538261 -5.815970 8.746404 23.114267 6.753769 -0.286627 -15.055037 2.227879 -7.781193 -33.322205 3.614749 26.943545 65.848087 24.296843 -15.698713 5.946138 -4.658821 -0.024963 0.092675 -0.014649
